PathFileType	4	(X/Y/Z)	Patient3_R_AnkleIso_Processed.trc
DataRate	CameraRate	NumFrames	NumMarkers	Units	OrigDataRate	OrigDataStartFrame	OrigNumFrames
16.66000000000000	16.66000000000000	4	33	mm	16.66000000000000	26	       50
Frame#	Time	L.Toe			R.Toe			R.Shoulder			L.Heel			Neck			R.Heel			L.Shank.Lateral			R.Shank.Lateral			L.Midfoot.Superior			L.Elbow			R.Midfoot.Lateral			R.Midfoot.Superior			L.Shoulder			R.Thigh.Lateral			R.Elbow			Sacral			L.Thigh.Superior			R.Patella			R.Wrist			R.Shank.Superior			L.Wrist			R.Shank.Inferior			R.Thigh.Superior			R.Thigh.Inferior			L.Asis			L.Shank.Inferior			L.Midfoot.Lateral			Sternum			L.Shank.Superior			R.Asis			L.Patella			L.Thigh.Lateral			L.Thigh.Inferior			
		X1	Y1	Z1	X2	Y2	Z2	X3	Y3	Z3	X4	Y4	Z4	X5	Y5	Z5	X6	Y6	Z6	X7	Y7	Z7	X8	Y8	Z8	X9	Y9	Z9	X10	Y10	Z10	X11	Y11	Z11	X12	Y12	Z12	X13	Y13	Z13	X14	Y14	Z14	X15	Y15	Z15	X16	Y16	Z16	X17	Y17	Z17	X18	Y18	Z18	X19	Y19	Z19	X20	Y20	Z20	X21	Y21	Z21	X22	Y22	Z22	X23	Y23	Z23	X24	Y24	Z24	X25	Y25	Z25	X26	Y26	Z26	X27	Y27	Z27	X28	Y28	Z28	X29	Y29	Z29	X30	Y30	Z30	X31	Y31	Z31	X32	Y32	Z32	X33	Y33	Z33	

26	2.030612245	705.4464862	42.99380037	376.7316638	1097.513587	329.0927779	574.8517734	451.7766157	1447.771643	508.8818684	414.8447609	33.02904083	427.1449367	423.0268331	1467.008807	359.5017753	903.3833615	108.1321634	621.3640117	476.4013621	325.4332925	294.6074638	768.6305132	436.6232753	665.7091726	585.9641699	89.98027999	390.1890098	366.9385635	1113.970642	95.76873357	978.9274387	171.1356067	660.7774061	982.8510284	270.9105655	601.8265349	471.7387543	1429.061983	218.4141324	639.761586	728.8648636	622.6073049	534.9831239	1141.724144	657.5726578	403.6894666	970.1988843	384.3711012	652.0480449	739.7266832	301.7518882	782.8957978	611.2944519	566.0258065	634.0560409	1269.338331	466.2758001	817.2150226	506.6603103	600.7579351	543.5013462	1000.810761	-54.70591973	887.9306592	346.0987532	612.0262278	689.6047012	804.1002944	554.921185	735.0652078	701.443072	555.068039	600.2683569	968.4195371	278.0969207	547.3337353	230.600506	364.5710654	490.4719727	27.16784993	359.4088665	563.1495505	1376.086931	378.8999845	569.1311388	382.9621064	332.7009549	547.2861021	997.0591067	533.4831665	612.1073724	491.9268539	344.2247019	553.7504162	657.8362124	258.2263041	633.8209035	610.1950298	321.9574614
27	2.091836735	705.3589779	43.28559125	376.754091	1097.384245	333.2232751	597.1131574	450.3572731	1447.714249	508.4505329	414.7962948	32.99666581	427.1053512	421.9591049	1466.913116	358.9492139	903.4152048	107.9310394	616.7746294	476.7121514	325.4347355	294.310923	766.2401377	435.7952812	664.8859403	585.9042468	90.06030254	390.1505266	366.2457502	1113.851753	95.37434936	972.0190324	171.8051834	665.6447237	981.2995087	272.7274517	608.8305173	471.0198245	1428.97553	217.98066	637.8147757	728.7851126	622.8501211	533.5872053	1141.960552	657.554584	402.766988	970.0244526	383.5879342	651.8273857	739.8933106	301.9478131	781.5784011	611.8453395	567.0579729	632.8099343	1269.572059	466.3375863	815.789811	506.8120981	601.865615	542.608478	1000.446177	-55.15433908	886.6217906	346.3471072	612.6572693	687.8218933	804.3606127	555.7746103	733.6156962	701.9468216	555.9133475	599.9248083	968.4151464	278.4626662	547.4657888	230.6150701	364.7093443	490.4718548	27.15861267	359.4141317	561.9444276	1376.065006	378.7670827	569.3008627	382.8105306	332.684013	545.4495375	997.0906071	533.4956958	612.529688	491.9424376	344.0832883	553.8701011	657.8218593	258.1851473	633.7648403	610.3078197	321.9657578
28	2.153061224	705.3021984	43.49564383	376.7764184	1095.885995	335.2084772	618.4367155	449.1419522	1447.499499	508.1279948	414.758546	32.99019674	427.0702252	421.2230532	1466.726569	358.5180955	903.2913701	107.6769366	613.2781681	477.3372239	325.4653588	294.2191045	764.2284431	434.8274564	664.0919302	585.8549171	90.12217022	390.147254	365.7982676	1113.782087	94.92657631	964.5753769	171.9331471	669.9870486	979.7622532	273.6459375	615.5207068	470.7082528	1428.793879	217.6762546	636.4415073	728.723325	623.216061	531.9134297	1141.962584	657.6831525	402.2273295	969.6697216	382.9734176	652.0823375	740.1021976	302.3328498	780.7154586	612.2609955	568.2330382	631.6038654	1269.494091	466.6755678	814.7929158	506.839215	603.1532425	541.9182729	999.9902406	-55.58342238	885.7463411	346.4517604	613.4369757	686.5256622	804.5543297	556.6217072	732.6438045	702.3683856	556.8047462	599.9202691	968.4584975	278.9025505	547.7917627	230.5759125	364.8927174	490.4714882	27.1491864	359.419304	560.9453259	1375.844729	378.8216944	569.8328995	382.6793984	332.8223113	543.9626645	997.0877412	533.5911799	613.343591	491.9342155	344.1329796	554.4855984	657.8011604	258.3265821	634.2408973	610.4436618	322.1571147
29	2.214285714	705.2894571	43.53860917	376.7793898	1093.482639	334.5148035	638.0688773	448.2149703	1447.068721	508.103035	414.7632282	33.00120635	427.0736426	420.655083	1466.426755	358.4692659	902.2842035	107.1916837	611.6400862	477.6705991	325.4846784	294.4100833	762.6861132	433.8476392	664.1193303	585.8442094	90.12356835	390.1604828	365.4501792	1113.70553	94.61837074	956.9054444	171.5173547	674.4762479	978.380269	273.3176076	622.2111691	470.3940068	1428.601598	217.6516486	635.7229511	728.5811922	623.849258	530.6126771	1141.533883	657.7328707	402.2585982	969.2076874	382.6349765	652.5573366	740.2152354	302.7210186	780.4093689	612.3173217	569.850907	630.6858972	1269.186665	467.0048098	814.1621182	506.5792833	604.9569276	541.4668111	999.78408	-55.90955224	885.1738592	346.2076359	614.9361902	685.9473757	804.4815517	557.5359117	732.3099208	702.4873986	557.9871917	600.2716773	968.4885732	279.1617951	548.0325768	230.5452004	364.98234	490.4723016	27.14926962	359.4039014	560.1640792	1375.536726	378.9922341	570.2952441	382.6976306	332.8998103	543.2733878	996.9935229	533.6798937	613.8749243	491.9149174	344.2585015	555.1479195	657.8120013	258.4856137	634.7765918	610.5055519	322.4215636
